%TF.GenerationSoftware,KiCad,Pcbnew,(6.0.4-0)*%
%TF.CreationDate,2022-07-24T15:42:13+01:00*%
%TF.ProjectId,isp_interface,6973705f-696e-4746-9572-666163652e6b,0.1.0*%
%TF.SameCoordinates,PX55f1c20PY82dabb0*%
%TF.FileFunction,Copper,L1,Top*%
%TF.FilePolarity,Positive*%
%FSLAX46Y46*%
G04 Gerber Fmt 4.6, Leading zero omitted, Abs format (unit mm)*
G04 Created by KiCad (PCBNEW (6.0.4-0)) date 2022-07-24 15:42:13*
%MOMM*%
%LPD*%
G01*
G04 APERTURE LIST*
%TA.AperFunction,ComponentPad*%
%ADD10R,1.700000X1.700000*%
%TD*%
%TA.AperFunction,ComponentPad*%
%ADD11O,1.700000X1.700000*%
%TD*%
%TA.AperFunction,ComponentPad*%
%ADD12O,1.000000X1.000000*%
%TD*%
%TA.AperFunction,ComponentPad*%
%ADD13R,1.000000X1.000000*%
%TD*%
%TA.AperFunction,ComponentPad*%
%ADD14R,2.400000X1.600000*%
%TD*%
%TA.AperFunction,ComponentPad*%
%ADD15O,2.400000X1.600000*%
%TD*%
%TA.AperFunction,ViaPad*%
%ADD16C,0.800000*%
%TD*%
%TA.AperFunction,Conductor*%
%ADD17C,0.250000*%
%TD*%
%TA.AperFunction,Conductor*%
%ADD18C,0.500000*%
%TD*%
%TA.AperFunction,Conductor*%
%ADD19C,1.000000*%
%TD*%
G04 APERTURE END LIST*
D10*
%TO.P,JP101,1,A*%
%TO.N,CHIPID*%
X25704800Y32562800D03*
D11*
%TO.P,JP101,2,C*%
%TO.N,A9{slash}CHIPID*%
X25704800Y30022800D03*
%TO.P,JP101,3,B*%
%TO.N,A9*%
X25704800Y27482800D03*
%TD*%
D12*
%TO.P,J103,10,Pin_10*%
%TO.N,unconnected-(J103-Pad10)*%
X26349800Y15989800D03*
%TO.P,J103,9,Pin_9*%
%TO.N,GND*%
X25079800Y15989800D03*
%TO.P,J103,8,Pin_8*%
%TO.N,~{CE}*%
X26349800Y17259800D03*
%TO.P,J103,7,Pin_7*%
%TO.N,VCC*%
X25079800Y17259800D03*
%TO.P,J103,6,Pin_6*%
%TO.N,CS2*%
X26349800Y18529800D03*
%TO.P,J103,5,Pin_5*%
%TO.N,unconnected-(J103-Pad5)*%
X25079800Y18529800D03*
%TO.P,J103,4,Pin_4*%
%TO.N,unconnected-(J103-Pad4)*%
X26349800Y19799800D03*
%TO.P,J103,3,Pin_3*%
%TO.N,~{OE}*%
X25079800Y19799800D03*
%TO.P,J103,2,Pin_2*%
%TO.N,~{WE}*%
X26349800Y21069800D03*
D13*
%TO.P,J103,1,Pin_1*%
%TO.N,CHIPID*%
X25079800Y21069800D03*
%TD*%
D10*
%TO.P,J101,1,Pin_1*%
%TO.N,unconnected-(J101-Pad1)*%
X13004800Y46532800D03*
D11*
%TO.P,J101,2,Pin_2*%
%TO.N,A17*%
X10464800Y46532800D03*
%TO.P,J101,3,Pin_3*%
%TO.N,unconnected-(J101-Pad3)*%
X13004800Y43992800D03*
%TO.P,J101,4,Pin_4*%
%TO.N,A16*%
X10464800Y43992800D03*
%TO.P,J101,5,Pin_5*%
%TO.N,unconnected-(J101-Pad5)*%
X13004800Y41452800D03*
%TO.P,J101,6,Pin_6*%
%TO.N,A15*%
X10464800Y41452800D03*
%TO.P,J101,7,Pin_7*%
%TO.N,unconnected-(J101-Pad7)*%
X13004800Y38912800D03*
%TO.P,J101,8,Pin_8*%
%TO.N,A14*%
X10464800Y38912800D03*
%TO.P,J101,9,Pin_9*%
%TO.N,unconnected-(J101-Pad9)*%
X13004800Y36372800D03*
%TO.P,J101,10,Pin_10*%
%TO.N,A13*%
X10464800Y36372800D03*
%TO.P,J101,11,Pin_11*%
%TO.N,unconnected-(J101-Pad11)*%
X13004800Y33832800D03*
%TO.P,J101,12,Pin_12*%
%TO.N,A12*%
X10464800Y33832800D03*
%TO.P,J101,13,Pin_13*%
%TO.N,unconnected-(J101-Pad13)*%
X13004800Y31292800D03*
%TO.P,J101,14,Pin_14*%
%TO.N,A11*%
X10464800Y31292800D03*
%TO.P,J101,15,Pin_15*%
%TO.N,unconnected-(J101-Pad15)*%
X13004800Y28752800D03*
%TO.P,J101,16,Pin_16*%
%TO.N,A10*%
X10464800Y28752800D03*
%TO.P,J101,17,Pin_17*%
%TO.N,unconnected-(J101-Pad17)*%
X13004800Y26212800D03*
%TO.P,J101,18,Pin_18*%
%TO.N,A9*%
X10464800Y26212800D03*
%TO.P,J101,19,Pin_19*%
%TO.N,unconnected-(J101-Pad19)*%
X13004800Y23672800D03*
%TO.P,J101,20,Pin_20*%
%TO.N,A8*%
X10464800Y23672800D03*
%TO.P,J101,21,Pin_21*%
%TO.N,unconnected-(J101-Pad21)*%
X13004800Y21132800D03*
%TO.P,J101,22,Pin_22*%
%TO.N,A7*%
X10464800Y21132800D03*
%TO.P,J101,23,Pin_23*%
%TO.N,unconnected-(J101-Pad23)*%
X13004800Y18592800D03*
%TO.P,J101,24,Pin_24*%
%TO.N,A6*%
X10464800Y18592800D03*
%TO.P,J101,25,Pin_25*%
%TO.N,unconnected-(J101-Pad25)*%
X13004800Y16052800D03*
%TO.P,J101,26,Pin_26*%
%TO.N,A5*%
X10464800Y16052800D03*
%TO.P,J101,27,Pin_27*%
%TO.N,unconnected-(J101-Pad27)*%
X13004800Y13512800D03*
%TO.P,J101,28,Pin_28*%
%TO.N,A4*%
X10464800Y13512800D03*
%TO.P,J101,29,Pin_29*%
%TO.N,unconnected-(J101-Pad29)*%
X13004800Y10972800D03*
%TO.P,J101,30,Pin_30*%
%TO.N,A3*%
X10464800Y10972800D03*
%TO.P,J101,31,Pin_31*%
%TO.N,VCC*%
X13004800Y8432800D03*
%TO.P,J101,32,Pin_32*%
%TO.N,A2*%
X10464800Y8432800D03*
%TO.P,J101,33,Pin_33*%
%TO.N,unconnected-(J101-Pad33)*%
X13004800Y5892800D03*
%TO.P,J101,34,Pin_34*%
%TO.N,A1*%
X10464800Y5892800D03*
%TO.P,J101,35,Pin_35*%
%TO.N,GND*%
X13004800Y3352800D03*
%TO.P,J101,36,Pin_36*%
%TO.N,A0*%
X10464800Y3352800D03*
%TD*%
D14*
%TO.P,J104,1,VPP*%
%TO.N,unconnected-(J104-Pad1)*%
X4114800Y44007800D03*
D15*
%TO.P,J104,2,A16*%
%TO.N,A16*%
X4114800Y41467800D03*
%TO.P,J104,3,A15*%
%TO.N,A15*%
X4114800Y38927800D03*
%TO.P,J104,4,A12*%
%TO.N,A12*%
X4114800Y36387800D03*
%TO.P,J104,5,A7*%
%TO.N,A7*%
X4114800Y33847800D03*
%TO.P,J104,6,A6*%
%TO.N,A6*%
X4114800Y31307800D03*
%TO.P,J104,7,A5*%
%TO.N,A5*%
X4114800Y28767800D03*
%TO.P,J104,8,A4*%
%TO.N,A4*%
X4114800Y26227800D03*
%TO.P,J104,9,A3*%
%TO.N,A3*%
X4114800Y23687800D03*
%TO.P,J104,10,A2*%
%TO.N,A2*%
X4114800Y21147800D03*
%TO.P,J104,11,A1*%
%TO.N,A1*%
X4114800Y18607800D03*
%TO.P,J104,12,A0*%
%TO.N,A0*%
X4114800Y16067800D03*
%TO.P,J104,13,D0*%
%TO.N,AD0*%
X4114800Y13527800D03*
%TO.P,J104,14,D1*%
%TO.N,AD1*%
X4114800Y10987800D03*
%TO.P,J104,15,D2*%
%TO.N,AD2*%
X4114800Y8447800D03*
%TO.P,J104,16,GND*%
%TO.N,GND*%
X4114800Y5907800D03*
%TO.P,J104,17,D3*%
%TO.N,AD3*%
X19354800Y5907800D03*
%TO.P,J104,18,D4*%
%TO.N,AD4*%
X19354800Y8447800D03*
%TO.P,J104,19,D5*%
%TO.N,AD5*%
X19354800Y10987800D03*
%TO.P,J104,20,D6*%
%TO.N,AD6*%
X19354800Y13527800D03*
%TO.P,J104,21,D7*%
%TO.N,AD7*%
X19354800Y16067800D03*
%TO.P,J104,22,~{CE}*%
%TO.N,~{CE}*%
X19354800Y18607800D03*
%TO.P,J104,23,A10*%
%TO.N,A10*%
X19354800Y21147800D03*
%TO.P,J104,24,~{OE}*%
%TO.N,~{OE}*%
X19354800Y23687800D03*
%TO.P,J104,25,A11*%
%TO.N,A11*%
X19354800Y26227800D03*
%TO.P,J104,26,A9*%
%TO.N,A9{slash}CHIPID*%
X19354800Y28767800D03*
%TO.P,J104,27,A8*%
%TO.N,A8*%
X19354800Y31307800D03*
%TO.P,J104,28,A13*%
%TO.N,A13*%
X19354800Y33847800D03*
%TO.P,J104,29,A14*%
%TO.N,A14*%
X19354800Y36387800D03*
%TO.P,J104,30,A17*%
%TO.N,A17{slash}CS2*%
X19354800Y38927800D03*
%TO.P,J104,31,~{PGM}*%
%TO.N,~{WE}*%
X19354800Y41467800D03*
%TO.P,J104,32,VCC*%
%TO.N,VCC*%
X19354800Y44007800D03*
%TD*%
D13*
%TO.P,J102,1,Pin_1*%
%TO.N,AD0*%
X25079800Y10176800D03*
D12*
%TO.P,J102,2,Pin_2*%
%TO.N,AD1*%
X26349800Y10176800D03*
%TO.P,J102,3,Pin_3*%
%TO.N,AD2*%
X25079800Y8906800D03*
%TO.P,J102,4,Pin_4*%
%TO.N,AD3*%
X26349800Y8906800D03*
%TO.P,J102,5,Pin_5*%
%TO.N,AD4*%
X25079800Y7636800D03*
%TO.P,J102,6,Pin_6*%
%TO.N,AD5*%
X26349800Y7636800D03*
%TO.P,J102,7,Pin_7*%
%TO.N,AD6*%
X25079800Y6366800D03*
%TO.P,J102,8,Pin_8*%
%TO.N,AD7*%
X26349800Y6366800D03*
%TO.P,J102,9,Pin_9*%
%TO.N,GND*%
X25079800Y5096800D03*
%TO.P,J102,10,Pin_10*%
%TO.N,unconnected-(J102-Pad10)*%
X26349800Y5096800D03*
%TD*%
D10*
%TO.P,JP102,1,A*%
%TO.N,CS2*%
X25704800Y39655800D03*
D11*
%TO.P,JP102,2,C*%
%TO.N,A17{slash}CS2*%
X25704800Y42195800D03*
%TO.P,JP102,3,B*%
%TO.N,A17*%
X25704800Y44735800D03*
%TD*%
D16*
%TO.N,A10*%
X15290800Y22402800D03*
%TD*%
D17*
%TO.N,A10*%
X10464800Y28752800D02*
X11734800Y27482800D01*
X11734800Y27482800D02*
X14528800Y27482800D01*
X15290800Y26720800D02*
X15290800Y22402800D01*
X14528800Y27482800D02*
X15290800Y26720800D01*
%TO.N,A4*%
X8178800Y14528800D02*
X9194800Y13512800D01*
X8178800Y23689100D02*
X8178800Y14528800D01*
X4114800Y26227800D02*
X5640100Y26227800D01*
X9194800Y13512800D02*
X10464800Y13512800D01*
X5640100Y26227800D02*
X8178800Y23689100D01*
%TO.N,A3*%
X4114800Y23687800D02*
X5623800Y23687800D01*
X5623800Y23687800D02*
X7729290Y21582310D01*
X7729290Y21582310D02*
X7729290Y12438310D01*
X7729290Y12438310D02*
X9194800Y10972800D01*
X9194800Y10972800D02*
X10464800Y10972800D01*
D18*
%TO.N,VCC*%
X18353800Y44007800D02*
X16560800Y42214800D01*
X16560800Y10718800D02*
X14274800Y8432800D01*
D17*
X21640800Y19862800D02*
X16814800Y19862800D01*
X24243800Y17259800D02*
X21640800Y19862800D01*
D18*
X16560800Y19608800D02*
X16560800Y10718800D01*
X14274800Y8432800D02*
X13004800Y8432800D01*
D17*
X25079800Y17259800D02*
X24243800Y17259800D01*
D18*
X19354800Y44007800D02*
X18353800Y44007800D01*
X16560800Y42214800D02*
X16560800Y19608800D01*
D17*
X16814800Y19862800D02*
X16560800Y19608800D01*
%TO.N,A2*%
X9194800Y8432800D02*
X10464800Y8432800D01*
X4114800Y21147800D02*
X5623800Y21147800D01*
X7279780Y10347820D02*
X9194800Y8432800D01*
X7279780Y19491820D02*
X7279780Y10347820D01*
X5623800Y21147800D02*
X7279780Y19491820D01*
%TO.N,AD3*%
X29260800Y4114800D02*
X29260800Y7543800D01*
X29260800Y7543800D02*
X27897800Y8906800D01*
X19354800Y5907800D02*
X22671800Y2590800D01*
X27897800Y8906800D02*
X26349800Y8906800D01*
X22671800Y2590800D02*
X27736800Y2590800D01*
X27736800Y2590800D02*
X29260800Y4114800D01*
%TO.N,AD5*%
X27228800Y3606800D02*
X23418800Y3606800D01*
X26349800Y7636800D02*
X27262800Y7636800D01*
X28244800Y4622800D02*
X27228800Y3606800D01*
X27262800Y7636800D02*
X28244800Y6654800D01*
X21648300Y9949300D02*
X20609800Y10987800D01*
X23418800Y3606800D02*
X21648300Y5377300D01*
X28244800Y6654800D02*
X28244800Y4622800D01*
X20609800Y10987800D02*
X19354800Y10987800D01*
X21648300Y5377300D02*
X21648300Y9949300D01*
%TO.N,AD6*%
X19354800Y13527800D02*
X21117800Y13527800D01*
X21117800Y13527800D02*
X22962300Y11683300D01*
X22962300Y7365300D02*
X23960800Y6366800D01*
X22962300Y11683300D02*
X22962300Y7365300D01*
X23960800Y6366800D02*
X25079800Y6366800D01*
D19*
%TO.N,CHIPID*%
X24688800Y32562800D02*
X25704800Y32562800D01*
X24497800Y21069800D02*
X23164800Y22402800D01*
X23164800Y31038800D02*
X24688800Y32562800D01*
X23164800Y22402800D02*
X23164800Y31038800D01*
X25079800Y21069800D02*
X24497800Y21069800D01*
D17*
%TO.N,~{WE}*%
X20880100Y41467800D02*
X28244800Y34103100D01*
X26403800Y21069800D02*
X26349800Y21069800D01*
X28244800Y22910800D02*
X26403800Y21069800D01*
X19354800Y41467800D02*
X20880100Y41467800D01*
X28244800Y34103100D02*
X28244800Y22910800D01*
%TO.N,~{CE}*%
X27482800Y13766800D02*
X28244800Y14528800D01*
X23164800Y13766800D02*
X27482800Y13766800D01*
X28244800Y14528800D02*
X28244800Y16814800D01*
X22402800Y14528800D02*
X23164800Y13766800D01*
X22402800Y17576800D02*
X22402800Y14528800D01*
X21371800Y18607800D02*
X22402800Y17576800D01*
X27799800Y17259800D02*
X28244800Y16814800D01*
X19354800Y18607800D02*
X21371800Y18607800D01*
X26349800Y17259800D02*
X27799800Y17259800D01*
%TO.N,CS2*%
X29260800Y36118800D02*
X25723800Y39655800D01*
X26349800Y18529800D02*
X28689800Y18529800D01*
X25723800Y39655800D02*
X25704800Y39655800D01*
X28689800Y18529800D02*
X29260800Y19100800D01*
X29260800Y19100800D02*
X29260800Y36118800D01*
%TO.N,A1*%
X6830270Y8257330D02*
X9194800Y5892800D01*
X5623800Y18607800D02*
X6830270Y17401330D01*
X4114800Y18607800D02*
X5623800Y18607800D01*
X9194800Y5892800D02*
X10464800Y5892800D01*
X6830270Y17401330D02*
X6830270Y8257330D01*
%TO.N,A0*%
X1320800Y4114800D02*
X1320800Y15290800D01*
X1320800Y15290800D02*
X2097800Y16067800D01*
X10464800Y3352800D02*
X9194800Y2082800D01*
X3352800Y2082800D02*
X1320800Y4114800D01*
X2097800Y16067800D02*
X4114800Y16067800D01*
X9194800Y2082800D02*
X3352800Y2082800D01*
%TD*%
M02*
