M48
; DRILL file {KiCad (6.0.4-0)} date Sunday, 24 July 2022 at 15:42:16
; FORMAT={-:-/ absolute / inch / decimal}
; #@! TF.CreationDate,2022-07-24T15:42:16+01:00
; #@! TF.GenerationSoftware,Kicad,Pcbnew,(6.0.4-0)
; #@! TF.FileFunction,Plated,1,2,PTH
FMAT,2
INCH
; #@! TA.AperFunction,Plated,PTH,ViaDrill
T1C0.0157
; #@! TA.AperFunction,Plated,PTH,ComponentDrill
T2C0.0256
; #@! TA.AperFunction,Plated,PTH,ComponentDrill
T3C0.0394
%
G90
G05
T1
X0.602Y0.882
T2
X0.9874Y0.8295
X0.9874Y0.7795
X0.9874Y0.7295
X0.9874Y0.6795
X0.9874Y0.6295
X0.9874Y0.4007
X0.9874Y0.3507
X0.9874Y0.3007
X0.9874Y0.2507
X0.9874Y0.2007
X1.0374Y0.8295
X1.0374Y0.7795
X1.0374Y0.7295
X1.0374Y0.6795
X1.0374Y0.6295
X1.0374Y0.4007
X1.0374Y0.3507
X1.0374Y0.3007
X1.0374Y0.2507
X1.0374Y0.2007
T3
X0.162Y1.7326
X0.162Y1.6326
X0.162Y1.5326
X0.162Y1.4326
X0.162Y1.3326
X0.162Y1.2326
X0.162Y1.1326
X0.162Y1.0326
X0.162Y0.9326
X0.162Y0.8326
X0.162Y0.7326
X0.162Y0.6326
X0.162Y0.5326
X0.162Y0.4326
X0.162Y0.3326
X0.162Y0.2326
X0.412Y1.832
X0.412Y1.732
X0.412Y1.632
X0.412Y1.532
X0.412Y1.432
X0.412Y1.332
X0.412Y1.232
X0.412Y1.132
X0.412Y1.032
X0.412Y0.932
X0.412Y0.832
X0.412Y0.732
X0.412Y0.632
X0.412Y0.532
X0.412Y0.432
X0.412Y0.332
X0.412Y0.232
X0.412Y0.132
X0.512Y1.832
X0.512Y1.732
X0.512Y1.632
X0.512Y1.532
X0.512Y1.432
X0.512Y1.332
X0.512Y1.232
X0.512Y1.132
X0.512Y1.032
X0.512Y0.932
X0.512Y0.832
X0.512Y0.732
X0.512Y0.632
X0.512Y0.532
X0.512Y0.432
X0.512Y0.332
X0.512Y0.232
X0.512Y0.132
X0.762Y1.7326
X0.762Y1.6326
X0.762Y1.5326
X0.762Y1.4326
X0.762Y1.3326
X0.762Y1.2326
X0.762Y1.1326
X0.762Y1.0326
X0.762Y0.9326
X0.762Y0.8326
X0.762Y0.7326
X0.762Y0.6326
X0.762Y0.5326
X0.762Y0.4326
X0.762Y0.3326
X0.762Y0.2326
X1.012Y1.7613
X1.012Y1.6613
X1.012Y1.5613
X1.012Y1.282
X1.012Y1.182
X1.012Y1.082
T0
M30
