%TF.GenerationSoftware,KiCad,Pcbnew,(6.0.4-0)*%
%TF.CreationDate,2022-05-20T22:02:18+01:00*%
%TF.ProjectId,8088_cpu_card,38303838-5f63-4707-955f-636172642e6b,rev?*%
%TF.SameCoordinates,Original*%
%TF.FileFunction,Paste,Bot*%
%TF.FilePolarity,Positive*%
%FSLAX46Y46*%
G04 Gerber Fmt 4.6, Leading zero omitted, Abs format (unit mm)*
G04 Created by KiCad (PCBNEW (6.0.4-0)) date 2022-05-20 22:02:18*
%MOMM*%
%LPD*%
G01*
G04 APERTURE LIST*
G04 Aperture macros list*
%AMRoundRect*
0 Rectangle with rounded corners*
0 $1 Rounding radius*
0 $2 $3 $4 $5 $6 $7 $8 $9 X,Y pos of 4 corners*
0 Add a 4 corners polygon primitive as box body*
4,1,4,$2,$3,$4,$5,$6,$7,$8,$9,$2,$3,0*
0 Add four circle primitives for the rounded corners*
1,1,$1+$1,$2,$3*
1,1,$1+$1,$4,$5*
1,1,$1+$1,$6,$7*
1,1,$1+$1,$8,$9*
0 Add four rect primitives between the rounded corners*
20,1,$1+$1,$2,$3,$4,$5,0*
20,1,$1+$1,$4,$5,$6,$7,0*
20,1,$1+$1,$6,$7,$8,$9,0*
20,1,$1+$1,$8,$9,$2,$3,0*%
G04 Aperture macros list end*
%ADD10RoundRect,0.250000X-0.412500X-0.650000X0.412500X-0.650000X0.412500X0.650000X-0.412500X0.650000X0*%
%ADD11RoundRect,0.250000X-0.625000X0.400000X-0.625000X-0.400000X0.625000X-0.400000X0.625000X0.400000X0*%
%ADD12RoundRect,0.250000X-0.650000X0.412500X-0.650000X-0.412500X0.650000X-0.412500X0.650000X0.412500X0*%
%ADD13RoundRect,0.155000X-0.155000X0.212500X-0.155000X-0.212500X0.155000X-0.212500X0.155000X0.212500X0*%
%ADD14RoundRect,0.150000X-0.875000X-0.150000X0.875000X-0.150000X0.875000X0.150000X-0.875000X0.150000X0*%
%ADD15R,2.100000X2.700000*%
%ADD16RoundRect,0.250000X0.475000X-0.337500X0.475000X0.337500X-0.475000X0.337500X-0.475000X-0.337500X0*%
%ADD17RoundRect,0.250000X1.025000X-0.787500X1.025000X0.787500X-1.025000X0.787500X-1.025000X-0.787500X0*%
G04 APERTURE END LIST*
D10*
%TO.C,C7*%
X121500500Y-82042000D03*
X124625500Y-82042000D03*
%TD*%
D11*
%TO.C,R4*%
X145034000Y-63474000D03*
X145034000Y-66574000D03*
%TD*%
D10*
%TO.C,C5*%
X121500500Y-47371000D03*
X124625500Y-47371000D03*
%TD*%
D11*
%TO.C,R2*%
X107823000Y-44297000D03*
X107823000Y-47397000D03*
%TD*%
%TO.C,R3*%
X115062000Y-44297000D03*
X115062000Y-47397000D03*
%TD*%
D12*
%TO.C,C9*%
X139446000Y-124167500D03*
X139446000Y-127292500D03*
%TD*%
D10*
%TO.C,C10*%
X108038500Y-96647000D03*
X111163500Y-96647000D03*
%TD*%
D13*
%TO.C,C1*%
X102616000Y-69028500D03*
X102616000Y-70163500D03*
%TD*%
D14*
%TO.C,U2*%
X159180000Y-85090000D03*
X159180000Y-83820000D03*
X159180000Y-82550000D03*
X159180000Y-81280000D03*
X159180000Y-80010000D03*
X159180000Y-78740000D03*
X159180000Y-77470000D03*
X159180000Y-76200000D03*
X159180000Y-74930000D03*
X159180000Y-73660000D03*
X168480000Y-73660000D03*
X168480000Y-74930000D03*
X168480000Y-76200000D03*
X168480000Y-77470000D03*
X168480000Y-78740000D03*
X168480000Y-80010000D03*
X168480000Y-81280000D03*
X168480000Y-82550000D03*
X168480000Y-83820000D03*
X168480000Y-85090000D03*
%TD*%
D10*
%TO.C,C6*%
X155409500Y-48265000D03*
X158534500Y-48265000D03*
%TD*%
D13*
%TO.C,C2*%
X103759000Y-53915500D03*
X103759000Y-55050500D03*
%TD*%
D15*
%TO.C,Y1*%
X103785000Y-59326000D03*
X103785000Y-64626000D03*
X100685000Y-64626000D03*
X100685000Y-59326000D03*
%TD*%
D12*
%TO.C,C8*%
X157226000Y-90004500D03*
X157226000Y-93129500D03*
%TD*%
D16*
%TO.C,C3*%
X138303000Y-67458500D03*
X138303000Y-65383500D03*
%TD*%
D17*
%TO.C,C4*%
X97917000Y-127572500D03*
X97917000Y-121347500D03*
%TD*%
M02*
