M48
; DRILL file {KiCad (6.0.4-0)} date Friday, 20 May 2022 at 22:02:27
; FORMAT={-:-/ absolute / inch / decimal}
; #@! TF.CreationDate,2022-05-20T22:02:27+01:00
; #@! TF.GenerationSoftware,Kicad,Pcbnew,(6.0.4-0)
; #@! TF.FileFunction,Plated,1,2,PTH
FMAT,2
INCH
; #@! TA.AperFunction,Plated,PTH,ViaDrill
T1C0.0157
; #@! TA.AperFunction,Plated,PTH,ComponentDrill
T2C0.0315
; #@! TA.AperFunction,Plated,PTH,ComponentDrill
T3C0.0320
%
G90
G05
T1
X3.705Y-4.11
X3.855Y-4.7096
X3.9Y-1.85
X3.94Y-3.12
X3.95Y-2.965
X3.9833Y-4.1035
X3.9929Y-3.9021
X4.0Y-2.075
X4.0Y-2.915
X4.005Y-4.43
X4.02Y-3.345
X4.03Y-5.155
X4.0305Y-3.225
X4.05Y-1.95
X4.075Y-3.9475
X4.1Y-1.85
X4.101Y-3.2709
X4.105Y-4.22
X4.115Y-3.34
X4.1455Y-3.5337
X4.1562Y-4.1274
X4.1587Y-3.2606
X4.16Y-2.95
X4.165Y-3.72
X4.1725Y-3.9425
X4.1769Y-3.4242
X4.2258Y-3.2617
X4.2309Y-4.2262
X4.235Y-4.175
X4.2475Y-3.7075
X4.25Y-3.9
X4.275Y-2.05
X4.2817Y-4.2618
X4.2948Y-4.1477
X4.2953Y-3.4455
X4.2968Y-3.516
X4.31Y-3.17
X4.3475Y-3.72
X4.3475Y-3.94
X4.3515Y-4.7098
X4.36Y-3.1989
X4.3771Y-3.3781
X4.3782Y-4.1401
X4.386Y-1.744
X4.4397Y-3.3902
X4.4406Y-3.303
X4.444Y-3.4701
X4.485Y-2.305
X4.5063Y-3.4941
X4.515Y-3.72
X4.5225Y-3.9425
X4.535Y-2.475
X4.5435Y-3.2729
X4.554Y-3.1991
X4.5657Y-2.6245
X4.5685Y-4.8125
X4.6Y-4.1221
X4.6Y-4.305
X4.6045Y-3.2708
X4.6051Y-3.33
X4.6225Y-3.7025
X4.625Y-3.92
X4.685Y-3.2734
X4.69Y-4.725
X4.6974Y-4.1262
X4.705Y-3.93
X4.71Y-2.46
X4.715Y-3.73
X4.725Y-3.533
X4.73Y-5.13
X4.735Y-4.68
X4.74Y-2.71
X4.75Y-5.175
X4.7723Y-5.0773
X4.775Y-3.4849
X4.78Y-4.265
X4.785Y-1.74
X4.795Y-3.94
X4.8Y-2.235
X4.8252Y-5.0692
X4.83Y-4.435
X4.8626Y-4.8511
X4.8657Y-3.9827
X4.87Y-4.65
X4.875Y-2.87
X4.8797Y-4.3155
X4.88Y-2.78
X4.889Y-2.7098
X4.89Y-3.81
X4.8956Y-5.0676
X4.9065Y-3.2919
X4.9391Y-3.1626
X4.95Y-4.765
X4.9588Y-1.8489
X4.96Y-3.835
X4.97Y-4.05
X4.985Y-2.35
X5.045Y-3.98
X5.0483Y-4.9329
X5.055Y-2.49
X5.0699Y-3.7774
X5.07Y-3.705
X5.1Y-4.755
X5.1317Y-5.1676
X5.1373Y-4.6203
X5.1452Y-3.9631
X5.17Y-3.5417
X5.1814Y-4.5781
X5.1909Y-4.4241
X5.2278Y-4.5457
X5.264Y-5.1129
X5.2644Y-5.1826
X5.2658Y-4.9231
X5.275Y-4.36
X5.3Y-3.795
X5.305Y-3.67
X5.305Y-4.595
X5.31Y-3.39
X5.31Y-3.54
X5.315Y-4.675
X5.3155Y-3.9262
X5.3292Y-4.8364
X5.345Y-4.565
X5.3567Y-4.4652
X5.36Y-4.655
X5.3734Y-4.8521
X5.3737Y-4.0972
X5.3959Y-3.1791
X5.405Y-3.36
X5.4281Y-2.355
X5.4443Y-5.0841
X5.45Y-2.855
X5.46Y-2.18
X5.49Y-4.825
X5.49Y-5.0639
X5.5058Y-3.2889
X5.51Y-2.855
X5.525Y-2.6
X5.525Y-5.15
X5.54Y-2.25
X5.55Y-2.425
X5.5619Y-2.73
X5.5707Y-4.8882
X5.6015Y-5.15
X5.617Y-2.6435
X5.625Y-3.505
X5.635Y-2.145
X5.6375Y-3.2458
X5.65Y-4.9
X5.655Y-3.735
X5.6555Y-4.975
X5.6571Y-4.8246
X5.665Y-3.3257
X5.665Y-2.765
X5.6684Y-2.8545
X5.6743Y-4.0662
X5.6793Y-3.4528
X5.6969Y-4.7942
X5.7227Y-3.9585
X5.7409Y-4.3748
X5.745Y-2.045
X5.7469Y-3.7048
X5.78Y-3.205
X5.784Y-3.28
X5.7937Y-4.2621
X5.8Y-5.025
X5.8Y-5.1623
X5.82Y-3.025
X5.825Y-4.07
X5.83Y-1.84
X5.83Y-3.92
X5.837Y-4.259
X5.8447Y-4.3216
X5.848Y-3.095
X5.85Y-2.115
X5.85Y-4.925
X5.855Y-2.9533
X5.8563Y-4.4542
X5.86Y-4.6408
X5.865Y-4.595
X5.8678Y-4.3633
X5.8794Y-2.8295
X5.8908Y-4.8804
X5.8909Y-4.2983
X5.895Y-4.475
X5.897Y-4.0884
X5.8987Y-4.2372
X5.8996Y-3.904
X5.91Y-3.16
X5.9378Y-3.0549
X5.939Y-3.0962
X5.95Y-3.57
X5.95Y-4.95
X5.9924Y-3.6476
X5.9927Y-5.0409
X5.9948Y-3.8564
X6.015Y-2.575
X6.0232Y-5.0688
X6.0263Y-3.7695
X6.0418Y-3.6325
X6.0713Y-5.1088
X6.085Y-2.265
X6.09Y-3.6837
X6.105Y-4.28
X6.12Y-1.74
X6.1258Y-4.1143
X6.1259Y-4.5903
X6.1264Y-2.6678
X6.1308Y-4.3829
X6.1346Y-3.712
X6.1355Y-4.3202
X6.1368Y-2.7721
X6.1448Y-4.7814
X6.1628Y-4.503
X6.1886Y-3.7183
X6.19Y-3.47
X6.2Y-5.1
X6.2058Y-2.7789
X6.2669Y-2.7793
X6.29Y-3.8724
X6.2942Y-1.8817
X6.3057Y-4.5521
X6.3256Y-3.7523
X6.335Y-2.63
X6.34Y-2.585
X6.3487Y-2.7764
X6.35Y-5.035
X6.3736Y-4.5704
X6.375Y-3.9508
X6.375Y-4.125
X6.3808Y-3.7066
X6.385Y-2.255
X6.3958Y-3.5982
X6.4112Y-3.8271
X6.435Y-3.92
X6.446Y-3.5563
X6.457Y-2.7784
X6.4673Y-3.6546
X6.4983Y-4.2742
X6.5Y-4.095
X6.5094Y-4.5837
X6.5354Y-3.5654
X6.59Y-1.795
X6.5975Y-3.7377
X6.6Y-5.075
X6.625Y-2.51
X6.6266Y-3.5567
X6.65Y-2.715
X6.65Y-3.7
X6.65Y-4.825
X6.69Y-1.93
X6.715Y-3.425
X6.7162Y-3.2844
X6.7202Y-2.2
X6.7394Y-4.5698
X6.75Y-5.1
X6.7616Y-2.9434
X6.7681Y-5.1582
X6.7829Y-4.8229
X6.7903Y-2.5545
X6.8049Y-4.9711
X6.8096Y-3.7468
X6.8445Y-3.0179
X6.8498Y-2.6328
X6.85Y-5.0
X6.87Y-2.15
X6.8729Y-2.27
X6.9067Y-4.6422
X6.92Y-2.895
X6.921Y-1.8367
X6.9987Y-2.756
X7.0Y-5.12
X7.02Y-2.56
X7.03Y-2.17
X7.035Y-3.63
X7.075Y-4.85
X7.1004Y-3.3227
X7.1021Y-3.425
X7.115Y-3.715
X7.16Y-3.18
X7.1621Y-4.713
X7.175Y-5.165
X7.195Y-3.05
X7.235Y-1.74
X7.245Y-1.945
X7.2528Y-3.4842
X7.2559Y-4.4697
X7.275Y-4.775
X7.2769Y-2.8131
X7.2834Y-4.4144
X7.295Y-2.425
X7.385Y-1.89
X7.385Y-2.515
T2
X6.1202Y-2.0746
X6.1202Y-2.3746
X6.2202Y-2.0746
X6.2202Y-2.3746
X6.3202Y-2.0746
X6.3202Y-2.3746
X6.4202Y-2.0746
X6.4202Y-2.3746
X6.5202Y-2.0746
X6.5202Y-2.3746
X6.6202Y-2.0746
X6.6202Y-2.3746
X6.64Y-4.04
X6.64Y-4.14
X6.64Y-4.24
X6.64Y-4.34
X6.7202Y-2.0746
X6.7202Y-2.3746
X6.74Y-3.94
X6.74Y-4.04
X6.74Y-4.14
X6.74Y-4.24
X6.74Y-4.34
X6.74Y-4.44
X6.8202Y-2.0746
X6.8202Y-2.3746
X6.84Y-3.94
X6.84Y-4.04
X6.84Y-4.34
X6.84Y-4.44
X6.9202Y-2.0746
X6.9202Y-2.3746
X6.94Y-3.94
X6.94Y-4.04
X6.94Y-4.34
X6.94Y-4.44
X7.0202Y-2.0746
X7.0202Y-2.3746
X7.04Y-3.94
X7.04Y-4.04
X7.04Y-4.14
X7.04Y-4.24
X7.04Y-4.34
X7.04Y-4.44
X7.14Y-4.04
X7.14Y-4.14
X7.14Y-4.24
X7.14Y-4.34
T3
X4.285Y-2.155
X4.285Y-2.255
X4.285Y-2.355
X4.285Y-2.455
X4.285Y-2.555
X4.285Y-2.655
X4.285Y-2.755
X4.285Y-2.855
X4.285Y-2.955
X4.385Y-2.055
X4.385Y-2.155
X4.385Y-2.255
X4.385Y-2.355
X4.385Y-2.455
X4.385Y-2.555
X4.385Y-2.655
X4.385Y-2.755
X4.385Y-2.855
X4.385Y-2.955
X4.385Y-3.055
X4.485Y-2.055
X4.485Y-2.155
X4.485Y-2.955
X4.485Y-3.055
X4.585Y-2.055
X4.585Y-2.155
X4.585Y-2.955
X4.585Y-3.055
X4.685Y-2.055
X4.685Y-2.155
X4.685Y-2.955
X4.685Y-3.055
X4.785Y-2.055
X4.785Y-2.155
X4.785Y-2.955
X4.785Y-3.055
X4.885Y-2.055
X4.885Y-2.155
X4.885Y-2.955
X4.885Y-3.055
X4.985Y-2.055
X4.985Y-2.155
X4.985Y-2.955
X4.985Y-3.055
X5.085Y-2.055
X5.085Y-2.155
X5.085Y-2.955
X5.085Y-3.055
X5.185Y-2.055
X5.185Y-2.155
X5.185Y-2.255
X5.185Y-2.355
X5.185Y-2.455
X5.185Y-2.555
X5.185Y-2.655
X5.185Y-2.755
X5.185Y-2.855
X5.185Y-2.955
X5.185Y-3.055
X5.285Y-2.155
X5.285Y-2.255
X5.285Y-2.355
X5.285Y-2.455
X5.285Y-2.555
X5.285Y-2.655
X5.285Y-2.755
X5.285Y-2.855
X5.285Y-2.955
T0
M30
