%TF.GenerationSoftware,KiCad,Pcbnew,(6.0.4-0)*%
%TF.CreationDate,2022-05-20T22:02:18+01:00*%
%TF.ProjectId,8088_cpu_card,38303838-5f63-4707-955f-636172642e6b,rev?*%
%TF.SameCoordinates,Original*%
%TF.FileFunction,Soldermask,Bot*%
%TF.FilePolarity,Negative*%
%FSLAX46Y46*%
G04 Gerber Fmt 4.6, Leading zero omitted, Abs format (unit mm)*
G04 Created by KiCad (PCBNEW (6.0.4-0)) date 2022-05-20 22:02:18*
%MOMM*%
%LPD*%
G01*
G04 APERTURE LIST*
G04 Aperture macros list*
%AMRoundRect*
0 Rectangle with rounded corners*
0 $1 Rounding radius*
0 $2 $3 $4 $5 $6 $7 $8 $9 X,Y pos of 4 corners*
0 Add a 4 corners polygon primitive as box body*
4,1,4,$2,$3,$4,$5,$6,$7,$8,$9,$2,$3,0*
0 Add four circle primitives for the rounded corners*
1,1,$1+$1,$2,$3*
1,1,$1+$1,$4,$5*
1,1,$1+$1,$6,$7*
1,1,$1+$1,$8,$9*
0 Add four rect primitives between the rounded corners*
20,1,$1+$1,$2,$3,$4,$5,0*
20,1,$1+$1,$4,$5,$6,$7,0*
20,1,$1+$1,$6,$7,$8,$9,0*
20,1,$1+$1,$8,$9,$2,$3,0*%
%AMFreePoly0*
4,1,22,0.550000,-0.750000,0.000000,-0.750000,0.000000,-0.745033,-0.079941,-0.743568,-0.215256,-0.701293,-0.333266,-0.622738,-0.424486,-0.514219,-0.481581,-0.384460,-0.499164,-0.250000,-0.500000,-0.250000,-0.500000,0.250000,-0.499164,0.250000,-0.499963,0.256109,-0.478152,0.396186,-0.417904,0.524511,-0.324060,0.630769,-0.204165,0.706417,-0.067858,0.745374,0.000000,0.744959,0.000000,0.750000,
0.550000,0.750000,0.550000,-0.750000,0.550000,-0.750000,$1*%
%AMFreePoly1*
4,1,20,0.000000,0.744959,0.073905,0.744508,0.209726,0.703889,0.328688,0.626782,0.421226,0.519385,0.479903,0.390333,0.500000,0.250000,0.500000,-0.250000,0.499851,-0.262216,0.476331,-0.402017,0.414519,-0.529596,0.319384,-0.634700,0.198574,-0.708877,0.061801,-0.746166,0.000000,-0.745033,0.000000,-0.750000,-0.550000,-0.750000,-0.550000,0.750000,0.000000,0.750000,0.000000,0.744959,
0.000000,0.744959,$1*%
G04 Aperture macros list end*
%ADD10C,0.150000*%
%ADD11R,1.000000X1.000000*%
%ADD12R,1.600000X1.600000*%
%ADD13O,1.600000X1.600000*%
%ADD14R,1.780000X7.620000*%
%ADD15R,1.422400X1.422400*%
%ADD16C,1.422400*%
%ADD17C,1.320800*%
%ADD18R,1.320800X1.320800*%
%ADD19RoundRect,0.250000X-0.412500X-0.650000X0.412500X-0.650000X0.412500X0.650000X-0.412500X0.650000X0*%
%ADD20RoundRect,0.250000X-0.625000X0.400000X-0.625000X-0.400000X0.625000X-0.400000X0.625000X0.400000X0*%
%ADD21FreePoly0,270.000000*%
%ADD22R,1.500000X1.000000*%
%ADD23FreePoly1,270.000000*%
%ADD24RoundRect,0.250000X-0.650000X0.412500X-0.650000X-0.412500X0.650000X-0.412500X0.650000X0.412500X0*%
%ADD25RoundRect,0.155000X-0.155000X0.212500X-0.155000X-0.212500X0.155000X-0.212500X0.155000X0.212500X0*%
%ADD26RoundRect,0.150000X-0.875000X-0.150000X0.875000X-0.150000X0.875000X0.150000X-0.875000X0.150000X0*%
%ADD27R,2.100000X2.700000*%
%ADD28RoundRect,0.250000X0.475000X-0.337500X0.475000X0.337500X-0.475000X0.337500X-0.475000X-0.337500X0*%
%ADD29RoundRect,0.250000X1.025000X-0.787500X1.025000X0.787500X-1.025000X0.787500X-1.025000X-0.787500X0*%
G04 APERTURE END LIST*
D10*
X101600000Y-133604000D02*
X182880000Y-133604000D01*
X182880000Y-133604000D02*
X182880000Y-141478000D01*
X182880000Y-141478000D02*
X101600000Y-141478000D01*
X101600000Y-141478000D02*
X101600000Y-133604000D01*
G36*
X101600000Y-133604000D02*
G01*
X182880000Y-133604000D01*
X182880000Y-141478000D01*
X101600000Y-141478000D01*
X101600000Y-133604000D01*
G37*
D11*
%TO.C,TP1*%
X138557000Y-69977000D03*
%TD*%
D12*
%TO.C,J3*%
X155453000Y-60315000D03*
D13*
X157993000Y-60315000D03*
X160533000Y-60315000D03*
X163073000Y-60315000D03*
X165613000Y-60315000D03*
X168153000Y-60315000D03*
X170693000Y-60315000D03*
X173233000Y-60315000D03*
X175773000Y-60315000D03*
X178313000Y-60315000D03*
X178313000Y-52695000D03*
X175773000Y-52695000D03*
X173233000Y-52695000D03*
X170693000Y-52695000D03*
X168153000Y-52695000D03*
X165613000Y-52695000D03*
X163073000Y-52695000D03*
X160533000Y-52695000D03*
X157993000Y-52695000D03*
X155453000Y-52695000D03*
%TD*%
D14*
%TO.C,J2*%
X180340000Y-137160000D03*
X177800000Y-137160000D03*
X175260000Y-137160000D03*
X172720000Y-137160000D03*
X170180000Y-137160000D03*
X167640000Y-137160000D03*
X165100000Y-137160000D03*
X162560000Y-137160000D03*
X160020000Y-137160000D03*
X157480000Y-137160000D03*
X154940000Y-137160000D03*
X152400000Y-137160000D03*
X149860000Y-137160000D03*
X147320000Y-137160000D03*
X144780000Y-137160000D03*
X142240000Y-137160000D03*
X139700000Y-137160000D03*
X137160000Y-137160000D03*
X134620000Y-137160000D03*
X132080000Y-137160000D03*
X129540000Y-137160000D03*
X127000000Y-137160000D03*
X124460000Y-137160000D03*
X121920000Y-137160000D03*
X119380000Y-137160000D03*
X116840000Y-137160000D03*
X114300000Y-137160000D03*
X111760000Y-137160000D03*
X109220000Y-137160000D03*
X106680000Y-137160000D03*
X104140000Y-137160000D03*
%TD*%
D15*
%TO.C,J5*%
X178816000Y-107696000D03*
D16*
X181356000Y-105156000D03*
X178816000Y-105156000D03*
X181356000Y-102616000D03*
X178816000Y-100076000D03*
X178816000Y-102616000D03*
X176276000Y-100076000D03*
X176276000Y-102616000D03*
X173736000Y-100076000D03*
X173736000Y-102616000D03*
X171196000Y-100076000D03*
X168656000Y-102616000D03*
X171196000Y-102616000D03*
X168656000Y-105156000D03*
X171196000Y-105156000D03*
X168656000Y-107696000D03*
X171196000Y-107696000D03*
X168656000Y-110236000D03*
X171196000Y-112776000D03*
X171196000Y-110236000D03*
X173736000Y-112776000D03*
X173736000Y-110236000D03*
X176276000Y-112776000D03*
X176276000Y-110236000D03*
X178816000Y-112776000D03*
X181356000Y-110236000D03*
X178816000Y-110236000D03*
X181356000Y-107696000D03*
%TD*%
D17*
%TO.C,J1*%
X108839000Y-75057000D03*
X111379000Y-72517000D03*
X108839000Y-72517000D03*
X111379000Y-69977000D03*
X108839000Y-69977000D03*
X111379000Y-67437000D03*
X108839000Y-67437000D03*
X111379000Y-64897000D03*
X108839000Y-64897000D03*
X111379000Y-62357000D03*
X108839000Y-62357000D03*
X111379000Y-59817000D03*
X108839000Y-59817000D03*
X111379000Y-57277000D03*
X108839000Y-57277000D03*
X111379000Y-54737000D03*
X108839000Y-54737000D03*
X111379000Y-52197000D03*
X113919000Y-54737000D03*
X113919000Y-52197000D03*
X116459000Y-54737000D03*
X116459000Y-52197000D03*
X118999000Y-54737000D03*
X118999000Y-52197000D03*
X121539000Y-54737000D03*
X121539000Y-52197000D03*
X124079000Y-54737000D03*
X124079000Y-52197000D03*
X126619000Y-54737000D03*
X126619000Y-52197000D03*
X129159000Y-54737000D03*
X129159000Y-52197000D03*
X131699000Y-54737000D03*
X131699000Y-52197000D03*
X134239000Y-54737000D03*
X131699000Y-57277000D03*
X134239000Y-57277000D03*
X131699000Y-59817000D03*
X134239000Y-59817000D03*
X131699000Y-62357000D03*
X134239000Y-62357000D03*
X131699000Y-64897000D03*
X134239000Y-64897000D03*
X131699000Y-67437000D03*
X134239000Y-67437000D03*
X131699000Y-69977000D03*
X134239000Y-69977000D03*
X131699000Y-72517000D03*
X134239000Y-72517000D03*
X131699000Y-75057000D03*
X134239000Y-75057000D03*
X131699000Y-77597000D03*
X129159000Y-75057000D03*
X129159000Y-77597000D03*
X126619000Y-75057000D03*
X126619000Y-77597000D03*
X124079000Y-75057000D03*
X124079000Y-77597000D03*
X121539000Y-75057000D03*
X121539000Y-77597000D03*
X118999000Y-75057000D03*
X118999000Y-77597000D03*
X116459000Y-75057000D03*
X116459000Y-77597000D03*
X113919000Y-75057000D03*
X113919000Y-77597000D03*
X111379000Y-75057000D03*
D18*
X111379000Y-77597000D03*
%TD*%
D19*
%TO.C,C7*%
X121500500Y-82042000D03*
X124625500Y-82042000D03*
%TD*%
D20*
%TO.C,R4*%
X145034000Y-63474000D03*
X145034000Y-66574000D03*
%TD*%
D19*
%TO.C,C5*%
X121500500Y-47371000D03*
X124625500Y-47371000D03*
%TD*%
D20*
%TO.C,R2*%
X107823000Y-44297000D03*
X107823000Y-47397000D03*
%TD*%
%TO.C,R3*%
X115062000Y-44297000D03*
X115062000Y-47397000D03*
%TD*%
D21*
%TO.C,JP2*%
X120523000Y-125192000D03*
D22*
X120523000Y-126492000D03*
D23*
X120523000Y-127792000D03*
%TD*%
D24*
%TO.C,C9*%
X139446000Y-124167500D03*
X139446000Y-127292500D03*
%TD*%
D19*
%TO.C,C10*%
X108038500Y-96647000D03*
X111163500Y-96647000D03*
%TD*%
D25*
%TO.C,C1*%
X102616000Y-69028500D03*
X102616000Y-70163500D03*
%TD*%
D26*
%TO.C,U2*%
X159180000Y-85090000D03*
X159180000Y-83820000D03*
X159180000Y-82550000D03*
X159180000Y-81280000D03*
X159180000Y-80010000D03*
X159180000Y-78740000D03*
X159180000Y-77470000D03*
X159180000Y-76200000D03*
X159180000Y-74930000D03*
X159180000Y-73660000D03*
X168480000Y-73660000D03*
X168480000Y-74930000D03*
X168480000Y-76200000D03*
X168480000Y-77470000D03*
X168480000Y-78740000D03*
X168480000Y-80010000D03*
X168480000Y-81280000D03*
X168480000Y-82550000D03*
X168480000Y-83820000D03*
X168480000Y-85090000D03*
%TD*%
D19*
%TO.C,C6*%
X155409500Y-48265000D03*
X158534500Y-48265000D03*
%TD*%
D21*
%TO.C,JP1*%
X170942000Y-125065000D03*
D22*
X170942000Y-126365000D03*
D23*
X170942000Y-127665000D03*
%TD*%
D25*
%TO.C,C2*%
X103759000Y-53915500D03*
X103759000Y-55050500D03*
%TD*%
D27*
%TO.C,Y1*%
X103785000Y-59326000D03*
X103785000Y-64626000D03*
X100685000Y-64626000D03*
X100685000Y-59326000D03*
%TD*%
D24*
%TO.C,C8*%
X157226000Y-90004500D03*
X157226000Y-93129500D03*
%TD*%
D28*
%TO.C,C3*%
X138303000Y-67458500D03*
X138303000Y-65383500D03*
%TD*%
D29*
%TO.C,C4*%
X97917000Y-127572500D03*
X97917000Y-121347500D03*
%TD*%
M02*
